<svg t="1703394106289" class="icon" viewBox="0 0 1024 1024" version="1.1" xmlns="http://www.w3.org/2000/svg" p-id="7407" width="16" height="16"><path d="M83.969221 505.879667a488.05656 467.994662 90 1 0 935.989324 0 488.05656 467.994662 90 1 0-935.989324 0Z" fill="#56E5BE" p-id="7408"></path><path d="M610.521366 993.994378h-9.129617c-258.449587 0-468.110963-218.529317-468.110963-488.05656S342.825861 17.881257 601.391749 17.881257q9.507595 0 18.869814 0.377978c249.727022 10.263551 244.522559 970.501604-9.740197 975.735143z" fill="#50DDB8" p-id="7409"></path><path d="M718.448565 60.912576a485.236265 485.236265 0 0 0-48.468384-2.384168c-269.178341 0-487.416906 218.500241-487.416905 488.05656a488.201936 488.201936 0 0 0 323.025639 459.591925l129.646384-36.198643 192.303473-95.773758 136.886112-227.600784 21.515659-236.119821-116.824214-215.912548-199.107073-136.042931" fill="#42D3AD" p-id="7410"></path><path d="M512.014538 1024c-282.320338 0-512.014538-229.694199-512.014538-512.014538S229.694199 0 512.014538 0s511.985462 229.694199 511.985462 511.985462-229.548823 512.014538-511.985462 512.014538z m0-972.769471c-254.059229 0-460.754933 206.695704-460.754934 460.754933s206.812005 460.784009 460.754934 460.784009 460.754933-206.724779 460.754933-460.784009S766.190068 51.230529 512.014538 51.230529z" fill="#2E3138" p-id="7411"></path><path d="M517.800505 338.522729m-51.143303 0a51.143303 51.143303 0 1 0 102.286607 0 51.143303 51.143303 0 1 0-102.286607 0Z" fill="#2E3138" p-id="7412"></path><path d="M481.136659 483.433601m18.724439 0l35.90789 0q18.724439 0 18.724439 18.724439l0 306.016638q0 18.724439-18.724439 18.724439l-35.90789 0q-18.724439 0-18.724439-18.724439l0-306.016638q0-18.724439 18.724439-18.724439Z" fill="#2E3138" p-id="7413"></path></svg>