<svg t="1703302759265" class="icon" viewBox="0 0 1024 1024" version="1.1" xmlns="http://www.w3.org/2000/svg" p-id="1552" width="200" height="200"><path fill='currentColor' d="M261.12 809.5232a38.7072 38.7072 0 0 1-27.0848-65.792L751.3088 226.304a38.2976 38.2976 0 0 1 54.1696 54.1696L288.1024 797.9008a37.12 37.12 0 0 1-26.9824 11.6224z" p-id="1553"></path><path fill='currentColor' d="M778.24 809.5232a37.12 37.12 0 0 1-27.0848-11.6224L233.8816 280.4736A38.2976 38.2976 0 0 1 288.1024 226.304l517.4272 517.4272a37.4272 37.4272 0 0 1 0 54.1696 39.3728 39.3728 0 0 1-27.2896 11.6224z" p-id="1554"></path></svg>