<svg t="1703303661450" class="icon" viewBox="0 0 1024 1024" version="1.1" xmlns="http://www.w3.org/2000/svg" p-id="5671" width="200" height="200"><path fill='currentColor' d="M389.12 835.072H216.576c-48.128 0-87.04-43.52-87.04-97.28V258.56c0-53.76 38.912-97.28 87.04-97.28H389.12c18.432 0 33.28 14.848 33.28 33.28v607.232c0 18.432-14.848 33.28-33.28 33.28zM216.576 227.84c-10.752 0-20.48 14.848-20.48 30.72V737.28c0 17.92 10.752 30.72 20.48 30.72h139.264V227.84H216.576zM785.92 837.12h-172.544c-18.432 0-33.28-14.848-33.28-33.28V196.608c0-18.432 14.848-33.28 33.28-33.28h172.544c48.128 0 87.04 43.52 87.04 97.28v478.72c0 54.272-38.912 97.792-87.04 97.792z m-139.264-66.56h139.264c10.752 0 20.48-14.848 20.48-30.72V261.12c0-17.92-10.752-30.72-20.48-30.72h-139.264v540.16z" p-id="5672"></path><path fill='currentColor' d="M615.424 835.072H389.12c-18.432 0-33.28-14.848-33.28-33.28V196.608c0-18.432 14.848-33.28 33.28-33.28h226.304c18.432 0 33.28 14.848 33.28 33.28v605.184c0 18.432-14.848 33.28-33.28 33.28z m-193.024-66.56h159.744V229.888H422.4v538.624z" p-id="5673"></path></svg>