<svg t="1703429250193" class="icon" viewBox="0 0 1024 1024" version="1.1" xmlns="http://www.w3.org/2000/svg" p-id="6733" width="32" height="32">
<path d="M739.52 407.68H891.2a33.44 33.44 0 0 1 37.92 37.92v417.28a33.44 33.44 0 0 1-37.92 37.92H739.52a33.44 33.44 0 0 1-37.92-37.92V445.6a33.44 33.44 0 0 1 37.92-37.92z" fill="#00ff00" p-id="6734"></path>
<path d="M132.8 142.24a18.88 18.88 0 0 0-19.04 18.88v132.8a19.04 19.04 0 0 0 19.04 19.04h151.68A19.04 19.04 0 0 0 304 293.92v-132.8a18.88 18.88 0 0 0-18.88-18.88z m0-37.92h151.68a56.8 56.8 0 0 1 56.8 56.8v132.8a56.96 56.96 0 0 1-56.8 56.96H132.8a56.96 56.96 0 0 1-56.96-56.96v-132.8a56.8 56.8 0 0 1 56.96-56.8z m304 37.92a18.88 18.88 0 0 0-19.04 18.88v132.8a19.04 19.04 0 0 0 19.04 19.04h151.68a19.04 19.04 0 0 0 19.04-19.04v-132.8a18.88 18.88 0 0 0-19.04-18.88z m0-37.92h151.68a56.96 56.96 0 0 1 56.96 56.8v132.8a57.12 57.12 0 0 1-56.96 56.96H436.16a57.12 57.12 0 0 1-56.96-56.96v-132.8a56.96 56.96 0 0 1 56.96-56.8z m304 37.92a18.88 18.88 0 0 0-20.8 18.88v132.8a19.04 19.04 0 0 0 18.88 19.04H891.2a19.04 19.04 0 0 0 19.04-19.04v-132.8a18.88 18.88 0 0 0-19.04-18.88z m0-37.92h150.4a56.8 56.8 0 0 1 56.96 56.8v132.8a56.96 56.96 0 0 1-56.96 56.96H739.52a56.96 56.96 0 0 1-56.8-56.96v-132.8a56.8 56.8 0 0 1 56.8-56.8z m-608 322.4a18.88 18.88 0 0 0-19.04 18.88v132.8a18.88 18.88 0 0 0 19.04 18.88h151.68A18.88 18.88 0 0 0 304 578.4V445.6a18.88 18.88 0 0 0-18.88-18.88z m0-37.92h151.68a56.8 56.8 0 0 1 56.8 56.8v132.8a56.8 56.8 0 0 1-56.8 56.8H132.8a56.8 56.8 0 0 1-56.96-56.8V445.6a56.8 56.8 0 0 1 56.96-56.8z m304 37.92a18.88 18.88 0 0 0-19.04 18.88v132.8a18.88 18.88 0 0 0 19.04 18.88h151.68a18.88 18.88 0 0 0 19.04-18.88V445.6a18.88 18.88 0 0 0-19.04-18.88z m0-37.92h151.68a56.96 56.96 0 0 1 56.96 56.8v132.8a56.96 56.96 0 0 1-56.96 56.8H436.16a56.96 56.96 0 0 1-56.96-56.8V445.6a56.96 56.96 0 0 1 56.96-56.8z m304 37.92A18.88 18.88 0 0 0 720 445.6v417.28a18.88 18.88 0 0 0 18.88 18.88H891.2a18.88 18.88 0 0 0 19.04-18.88V445.6a18.88 18.88 0 0 0-19.04-18.88z m0-37.92h150.4a56.8 56.8 0 0 1 56.96 56.8v417.28a56.8 56.8 0 0 1-56.96 56.8H739.52a56.8 56.8 0 0 1-56.8-56.8V445.6a56.8 56.8 0 0 1 56.8-56.8z m-608 322.24a19.04 19.04 0 0 0-19.04 19.04v132.8a18.88 18.88 0 0 0 19.04 18.88h151.68A18.88 18.88 0 0 0 304 862.88v-132.8a19.04 19.04 0 0 0-18.88-19.04z m0-37.92h151.68a56.96 56.96 0 0 1 56.8 56.96v132.8a56.8 56.8 0 0 1-56.8 56.8H132.8a56.8 56.8 0 0 1-56.96-56.8v-132.8a56.96 56.96 0 0 1 56.96-56.96z m304 37.92a19.04 19.04 0 0 0-19.04 19.04v132.8a18.88 18.88 0 0 0 19.04 18.88h151.68a18.88 18.88 0 0 0 19.04-18.88v-132.8a19.04 19.04 0 0 0-19.04-19.04z m0-37.92h151.68a57.12 57.12 0 0 1 56.96 56.96v132.8a56.96 56.96 0 0 1-56.96 56.8H436.16a56.96 56.96 0 0 1-56.96-56.8v-132.8a57.12 57.12 0 0 1 56.96-56.96z" fill="#00ff00" p-id="6735"></path></svg>