<svg t="1703303293040" class="icon" viewBox="0 0 1024 1024" version="1.1" xmlns="http://www.w3.org/2000/svg" p-id="1995" width="200" height="200"><path fill='currentColor' d="M518.5536 934.0416c-99.3792 0-286.464-15.36-286.464-76.1344l-60.6208-645.12A14.2336 14.2336 0 1 1 199.68 209.92l60.7744 646.7072c0 15.36 87.7568 50.3296 259.328 50.3296s259.328-34.816 259.328-49.0496L839.68 209.92a14.2336 14.2336 0 0 1 28.3648 2.56l-60.4672 646.7072c-2.56 58.0608-189.44 74.8544-289.024 74.8544z" p-id="1996"></path><path fill='currentColor' d="M518.5536 947.2c-49.9712 0-299.3664-4.3008-299.3664-89.0368L158.72 213.9648c-2.2528-13.2608 8.2944-26.8288 23.6032-29.44a27.2384 27.2384 0 0 1 30.3616 23.5008l60.6208 645.632c10.5984 10.24 87.04 40.3968 246.6816 40.3968 157.9008 0 235.52-29.6448 246.784-39.6288l60.2112-645.4272a28.2624 28.2624 0 0 1 28.3136-24.6784h2.1504a28.0576 28.0576 0 0 1 23.6544 28.2112L820.4288 860.16c-3.7376 84.3264-271.4112 87.04-301.8752 87.04zM185.856 209.92a5.12 5.12 0 0 0-1.7408 1.3824l60.8256 645.376c0 32.3072 102.4 64.4608 273.6128 64.4608 131.9936 0 274.4832-25.1392 276.1216-62.5152l60.672-647.0656a3.3792 3.3792 0 0 0-1.1776-1.2288 2.304 2.304 0 0 0-1.6384 1.9456l-60.5184 646.8096c0 32.3584-124.6208 60.7232-272.1792 60.7232-150.1184 0-272.2816-28.3648-272.2816-63.232l-60.5696-645.12a3.8912 3.8912 0 0 0-1.1264-1.536z m580.608 646.2976a8.8064 8.8064 0 0 0 0 1.6896zM273.2544 855.04v0.5632a2.0992 2.0992 0 0 0 0-0.5632z" p-id="1997"></path><path fill='currentColor' d="M518.5536 318.5664c-167.7312 0-347.0848-38.7072-347.0848-109.6704s179.2-109.6704 347.0848-109.6704 347.0848 38.7072 347.0848 109.6704c0 72.2432-179.5584 109.6704-347.0848 109.6704z m0-189.44C321.1264 128.8704 199.68 176.64 199.68 209.92s121.2928 81.3056 318.72 81.3056S837.2224 243.712 837.2224 209.92s-121.2928-81.0496-318.6688-81.0496z m0 805.1712a14.6432 14.6432 0 0 1-10.24-3.8912l-296.96-314.8288a13.6704 13.6704 0 1 1 19.3536-19.3536l296.96 314.8288a14.0288 14.0288 0 0 1 0 19.3536 11.7248 11.7248 0 0 1-9.1136 3.6352z" p-id="1998"></path><path fill='currentColor' d="M518.5536 947.2a27.5456 27.5456 0 0 1-19.456-7.68l-296.96-315.0848a26.9312 26.9312 0 0 1 0.256-37.3248 27.904 27.904 0 0 1 37.5808 0l296.96 315.0848a26.9312 26.9312 0 0 1-0.256 37.3248 24.5248 24.5248 0 0 1-18.1248 7.68z m-296.96-342.1184l-0.8192 1.4336 296.96 315.0848c-0.3584-0.3584 0 0 0.9216 0l-0.4608-1.3312z m296.96-273.3568C373.76 331.4688 158.72 298.8032 158.72 208.896s215.04-122.5728 359.9872-122.5728 359.9872 32.6656 359.9872 122.5728c-0.1536 84.224-186.7776 122.5728-360.1408 122.5728z m0-219.3408C334.2848 112.128 184.32 155.5456 184.32 208.896s149.9136 96.768 334.1824 96.768 334.1824-43.4176 334.1824-96.768-149.8624-96.768-334.1312-96.768z m0 192.256c-182.8352 0-331.6224-42.24-331.6224-94.208s148.7872-94.208 331.6224-94.208S849.92 158.208 849.92 209.92s-148.48 94.464-331.3664 94.464z m0-162.56C308.0704 141.7728 212.736 194.2528 212.736 209.92s95.3344 68.4032 305.8176 68.4032S824.32 226.0992 824.32 209.92s-95.2832-68.1472-305.7664-68.1472z" p-id="1999"></path><path fill='currentColor' d="M783.0528 886.272a14.6432 14.6432 0 0 1-10.24-3.8912L180.48 283.6992A13.6704 13.6704 0 1 1 199.68 264.3456l592.384 598.7328a14.0288 14.0288 0 0 1 0 19.3536 14.7456 14.7456 0 0 1-9.0112 3.84z m32.256-269.6704a14.6432 14.6432 0 0 1-10.24-3.8912l-296.96-298.0864a13.6704 13.6704 0 0 1 19.2512-19.3024l296.96 298.0864a14.0288 14.0288 0 0 1 0 19.3536 11.7248 11.7248 0 0 1-9.0112 3.84z" p-id="2000"></path><path fill='currentColor' d="M783.0528 899.2256a27.5968 27.5968 0 0 1-19.4048-7.6288L171.3152 292.8128a26.9312 26.9312 0 0 1 0-37.5296 27.904 27.904 0 0 1 37.632 0L801.2288 854.016a26.9312 26.9312 0 0 1 0 37.5296 27.5968 27.5968 0 0 1-18.176 7.68z m-1.1264-25.9072h0.512l0.4608-1.1776L190.6688 273.4592l-1.024 1.1776 592.2304 598.7328s0-0.0512 0.0512-0.0512z m33.3824-243.5584a27.4944 27.4944 0 0 1-19.456-7.6288l-296.96-298.0864a26.9312 26.9312 0 0 1 0-37.5808 27.904 27.904 0 0 1 37.5808 0l296.96 298.0864a26.9312 26.9312 0 0 1 0 37.5808 24.576 24.576 0 0 1-18.1248 7.6288z m-1.1776-25.9072a8.96 8.96 0 0 0 1.1776 0l-296.96-299.264-1.0752 1.1776 296.96 298.0352-0.1536-0.2048z" p-id="2001"></path><path fill='currentColor' d="M518.5536 934.0416a11.7248 11.7248 0 0 1-9.0112-3.8912 12.9536 12.9536 0 0 1 0-19.3536l296.96-316.1088a13.6704 13.6704 0 0 1 19.3536 19.3536l-296.96 316.1088a24.6272 24.6272 0 0 1-10.3424 3.8912z m-264.5504-47.7696a14.6432 14.6432 0 0 1-10.24-3.8912 14.0288 14.0288 0 0 1 0-19.3536L835.9424 264.3456a13.6704 13.6704 0 0 1 19.3536 19.3536L263.0656 882.432a27.3408 27.3408 0 0 1-9.0624 3.84z m-32.256-267.1104a14.6432 14.6432 0 0 1-10.24-3.8912 14.0288 14.0288 0 0 1 0-19.3536l296.96-299.3664a13.6704 13.6704 0 1 1 18.8928 19.4048l-296.96 299.3664a14.7456 14.7456 0 0 1-8.6528 3.8912z" p-id="2002"></path><path fill='currentColor' d="M518.5536 947.2a24.6272 24.6272 0 0 1-18.176-7.68 27.7504 27.7504 0 0 1-8.0896-20.7872 24.2176 24.2176 0 0 1 8.3456-17.1008l296.2432-315.5968a28.0064 28.0064 0 0 1 21.0944-8.3968 24.1664 24.1664 0 0 1 17.3056 8.6016 27.7504 27.7504 0 0 1 7.6288 20.48 24.1152 24.1152 0 0 1-8.3456 17.0496l-297.8304 317.44-3.2256 1.6384a31.1296 31.1296 0 0 1-14.9504 4.352z m0-25.6l0.768 0.256-0.512-0.3072z m-0.3584 0z m297.984-317.952s-0.3072 0.3584-0.5632 0.5632l-297.8304 317.0816h0.6144a23.6032 23.6032 0 0 0 2.7136-1.3312l295.936-315.8016s-0.3584-0.3072-0.5632-0.5632z m-562.176 295.5776a27.5968 27.5968 0 0 1-19.4048-7.6288 26.9312 26.9312 0 0 1 0-37.632L826.7776 255.2832a27.8528 27.8528 0 0 1 37.632 0 26.9824 26.9824 0 0 1 0 37.5808l-593.92 600.1664-3.4304 1.792a27.7504 27.7504 0 0 1-13.056 4.4032zM844.8 273.5104L252.8768 872.1408a1.0752 1.0752 0 0 0 0 1.024l1.6896-0.9216h0.4608L846.1312 274.6368z m-623.3088 358.4a27.4944 27.4944 0 0 1-19.456-7.6288 26.9312 26.9312 0 0 1 0-37.632l296.96-299.3152a27.8528 27.8528 0 0 1 37.632 0 26.9312 26.9312 0 0 1 0 37.5808L239.9744 624.64a27.6992 27.6992 0 0 1-18.2272 7.4752zM517.12 305.7664l-296.4992 299.3152c0 0.768 0 1.0752 0.6144 1.1776l296.96-299.3664z" p-id="2003"></path></svg>