<svg t="1703303483437" class="icon" viewBox="0 0 1024 1024" version="1.1" xmlns="http://www.w3.org/2000/svg" p-id="3764" width="200" height="200"><path fill='currentColor' d="M808.2944 470.528A290.816 290.816 0 0 0 253.7472 371.4048a217.5488 217.5488 0 0 0-9.8304 428.1344 149.1456 149.1456 0 0 0 37.0176 4.352h504.4736a167.424 167.424 0 0 0 22.8864-333.3632z m-45.7728 44.6464a26.2656 26.2656 0 0 0 19.6096 7.6288h4.352a113.3056 113.3056 0 0 1 0 226.6112H282.0608a114.3808 114.3808 0 0 1-26.1632-3.2768 164.1984 164.1984 0 0 1 19.6096-324.6592 27.3408 27.3408 0 0 0 22.8864-17.408 237.3632 237.3632 0 0 1 458.6496 84.992v3.2768a25.2928 25.2928 0 0 0 5.4272 22.8864z" p-id="3765"></path><path fill='currentColor' d="M432.4352 576.2048L496.64 640.4608l1.0752 1.0752c1.0752 0 1.0752 1.0752 2.2016 1.0752s1.0752 1.0752 2.2016 1.0752 1.0752 1.0752 2.2016 1.0752 1.0752 0 2.2016 1.0752h13.056c1.0752 0 1.0752 0 2.2016-1.0752a1.0752 1.0752 0 0 0 1.0752-1.0752c1.0752 0 1.0752-1.0752 2.2016-1.0752l1.0752-1.0752c1.0752 0 1.0752-1.0752 2.2016-1.0752l64.256-64.256a21.5552 21.5552 0 0 0-30.72-30.72l-27.2384 27.2384V446.5664a21.8112 21.8112 0 1 0-43.5712 0v126.3616l-27.2384-27.2384a21.0432 21.0432 0 0 0-30.72 0 20.48 20.48 0 0 0-0.6656 30.5152z" p-id="3766"></path></svg>