<svg t="1703303356095" class="icon" viewBox="0 0 1024 1024" version="1.1" xmlns="http://www.w3.org/2000/svg" p-id="2590" width="200" height="200"><path fill='currentColor' d="M511.3856 889.4976a34.6624 34.6624 0 0 1-25.2928-10.8544l-346.6752-345.4976a35.84 35.84 0 1 1 50.5856-50.5856L511.3856 803.84l321.4336-321.4336a35.84 35.84 0 1 1 50.5856 50.5856l-346.6752 346.6752a36.5568 36.5568 0 0 1-25.2928 9.6256z" p-id="2591"></path><path fill='currentColor' d="M511.3856 889.4976a35.4816 35.4816 0 0 1-36.096-36.096V170.8032a36.096 36.096 0 1 1 72.2432 0v682.5984a35.4816 35.4816 0 0 1-36.1472 36.096z" p-id="2592"></path></svg>