<svg t="1703303521857" class="icon" viewBox="0 0 1024 1024" version="1.1" xmlns="http://www.w3.org/2000/svg" p-id="4058" width="200" height="200"><path fill='currentColor' d="M795.2384 916.48H236.544a60.5696 60.5696 0 0 1-60.6208-60.6208V177.2544A60.5696 60.5696 0 0 1 236.544 116.6336h558.6944a60.5696 60.5696 0 0 1 60.6208 60.6208v678.7072c1.28 33.5872-27.0848 60.5184-60.6208 60.5184zM236.544 161.792a14.336 14.336 0 0 0-14.1824 14.1824v678.7072a14.336 14.336 0 0 0 14.1824 14.1824h558.6944a14.336 14.336 0 0 0 14.1824-14.1824V175.9744a14.336 14.336 0 0 0-14.1824-14.1824z" p-id="4059"></path><path fill='currentColor' d="M795.2384 923.0848H236.544a67.1744 67.1744 0 0 1-67.1232-67.1232V177.2544a67.1744 67.1744 0 0 1 67.1232-67.072h558.6944a67.1744 67.1744 0 0 1 67.1232 67.1232v678.656a62.976 62.976 0 0 1-17.92 46.08 68.5056 68.5056 0 0 1-49.2032 21.0432zM236.544 122.88a54.272 54.272 0 0 0-54.2208 54.3744v678.7072a54.272 54.272 0 0 0 54.2208 54.2208h558.6944a55.552 55.552 0 0 0 39.8336-16.896 50.2784 50.2784 0 0 0 14.336-37.0688V177.2544A54.272 54.272 0 0 0 795.2384 122.88z m558.6944 752.64H236.544a20.48 20.48 0 0 1-20.48-20.48V175.9744a20.48 20.48 0 0 1 20.48-20.48h558.6944a20.48 20.48 0 0 1 20.48 20.48v678.7072a20.48 20.48 0 0 1-20.48 20.8384zM236.544 168.2432a7.8336 7.8336 0 0 0-7.7312 7.7312v678.7072a7.8336 7.8336 0 0 0 7.7312 7.7312h558.6944a7.8336 7.8336 0 0 0 7.7312-7.7312V175.9744a7.8336 7.8336 0 0 0-7.7312-7.7312z" p-id="4060"></path><path fill='currentColor' d="M525.568 306.3296H325.5296a25.6 25.6 0 0 1 0-51.6096h199.9872a25.6 25.6 0 1 1 0 51.6096zM466.176 416H325.5296a25.6 25.6 0 0 1 0-51.6096h140.6464a25.6 25.6 0 0 1 0 51.6096zM382.3104 777.2672a25.6 25.6 0 0 1-25.6-28.2112l9.0112-96.768a25.6 25.6 0 0 1 6.8096-15.36l238.6944-256.768a50.0224 50.0224 0 0 1 67.9424-3.328l0.768 0.6656 54.2208 50.3296c20.48 20.48 20.8896 50.5344 1.9456 69.4272l-238.0288 256a25.6 25.6 0 0 1-14.7968 7.936l-96.768 15.36a24.7808 24.7808 0 0 1-4.1984 0.7168zM416.256 665.6l-5.12 54.8864L466.2272 711.68l230.4-248.0128-49.8688-46.08z m282.624-203.9808z" p-id="4061"></path></svg>