<svg t="1703339849551" class="icon" viewBox="0 0 1024 1024" version="1.1" xmlns="http://www.w3.org/2000/svg" p-id="37755" width="200" height="200"><path d="M864.43 507.347c-66.68 67.17-166.17 89.76-255.32 57.96l-66.6 66.6-6.61 91.84c-0.92 13.18-11.42 23.68-24.6 24.6l-78.77 5.65-5.68 78.8c-0.92 13.18-11.42 23.68-24.6 24.6l-91.84 6.61-64.62 64.62a26.74 26.74 0 0 1-24.32 7.22l-93.01-19.77a26.638 26.638 0 0 1-20.45-20.45l-19.8-93.04c-1.86-8.81 0.86-17.95 7.22-24.32l363.36-363.35c-45-128.08 22.35-268.4 150.43-313.41s268.4 22.35 313.41 150.43c31.35 89.24 8.72 188.56-58.2 255.41z" fill="#EF7E20" p-id="37756"></path><path d="M227 959.997c-3.44 0-6.91-0.35-10.36-1.08l-93.08-19.78c-19.32-4.13-34.45-19.26-38.6-38.56l-19.82-93.09c-3.53-16.71 1.57-33.87 13.62-45.91l353.17-353.19c-18.56-63.75-13.06-131.21 15.9-191.55 31.14-64.88 85.68-113.75 153.58-137.6 140.13-49.25 294.23 24.72 343.48 164.87 34.16 97.2 9.13 207.06-63.76 279.9-69.21 69.68-171.95 95.65-265.54 68.19l-50.16 50.15-5.98 83.09c-1.73 24.73-21.71 44.71-46.49 46.44l-58.35 4.19-4.21 58.42c-1.74 24.73-21.73 44.71-46.49 46.44l-83.02 5.99-58.4 58.39c-9.59 9.53-22.33 14.69-35.49 14.69z m463.51-848.81c-24.39 0-49.18 4.06-73.47 12.58-56 19.68-100.99 59.98-126.67 113.5-25.69 53.52-29 113.82-9.32 169.83 3.01 8.56 0.84 18.08-5.58 24.5l-363.35 363.35c-0.71 0.72-1.02 1.77-0.81 2.76l19.8 92.99c0.24 1.12 1.15 2.04 2.31 2.29l92.97 19.77c0.96 0.14 2.01-0.14 2.76-0.88l64.58-64.56c4.01-4.01 9.33-6.44 14.98-6.85l91.85-6.62c1.5-0.11 2.66-1.27 2.76-2.72l5.68-78.83c0.84-11.7 10.15-21 21.84-21.84l78.77-5.65c1.49-0.11 2.65-1.26 2.75-2.7l6.62-91.9c0.41-5.67 2.84-10.98 6.85-14.99l66.6-66.59c6.45-6.44 16.02-8.6 24.61-5.55 80.15 28.57 170.69 8.03 230.65-52.36 0.02-0.03 0.05-0.05 0.07-0.08 60.14-60.06 80.78-150.7 52.61-230.89-32.09-91.31-118.15-148.56-209.86-148.56z" fill="#363432" p-id="37757"></path><path d="M799.45 337.377c-23.06 23.06-65.87 16.36-97.52-15.27-31.65-31.63-38.33-74.45-15.27-97.52 23.06-23.07 65.87-16.36 97.52 15.27 31.65 31.63 38.33 74.47 15.27 97.52z" fill="#FFFBF1" p-id="37758"></path><path d="M764.35 374.547c-26.55 0-55.55-12.23-79.09-35.74-40.98-40.98-47.69-98.48-15.28-130.9 16.37-16.37 40.41-23.46 65.88-19.51 23.11 3.63 46.2 15.98 65.01 34.78 18.81 18.79 31.17 41.89 34.78 65.02 3.99 25.48-3.13 49.49-19.51 65.87h-0.01c-13.78 13.78-32.11 20.48-51.78 20.48z m-42.56-140.09c-6.25 0-13.17 1.54-18.43 6.8-13.48 13.49-6.64 42.26 15.26 64.16 21.9 21.87 50.69 28.74 64.16 15.27 7.29-7.28 7.42-17.73 6.25-25.22-2.06-13.12-9.9-27.31-21.52-38.92-11.8-11.8-25.64-19.45-38.95-21.54-2.08-0.32-4.38-0.55-6.77-0.55z" fill="#363432" p-id="37759"></path><path d="M188.99 839.877c-6.04 0-12.07-2.3-16.68-6.91-9.22-9.22-9.22-24.15 0-33.36l263.15-263.14c9.22-9.22 24.15-9.22 33.36 0s9.22 24.15 0 33.36l-263.15 263.14a23.518 23.518 0 0 1-16.68 6.91z" fill="#363432" p-id="37760"></path></svg>