<svg t="1703303638274" class="icon" viewBox="0 0 1024 1024" version="1.1" xmlns="http://www.w3.org/2000/svg" p-id="5379" width="200" height="200"><path fill='currentColor' d="M865.28 260.608H187.904c-18.432 0-33.28-14.848-33.28-33.28s14.848-33.28 33.28-33.28H865.28c18.432 0 33.28 14.848 33.28 33.28s-14.848 33.28-33.28 33.28zM865.28 527.36H187.904c-18.432 0-33.28-14.848-33.28-33.28s14.848-33.28 33.28-33.28H865.28c18.432 0 33.28 14.848 33.28 33.28s-14.848 33.28-33.28 33.28zM865.28 821.76H187.904c-18.432 0-33.28-14.848-33.28-33.28s14.848-33.28 33.28-33.28H865.28c18.432 0 33.28 14.848 33.28 33.28s-14.848 33.28-33.28 33.28z" p-id="5380"></path></svg>