<svg t="1703303508008" class="icon" viewBox="0 0 1024 1024" version="1.1" xmlns="http://www.w3.org/2000/svg" p-id="3911" width="200" height="200"><path fill='currentColor' d="M861.0304 290.816a32.3072 32.3072 0 0 1-23.2448-10.24l-73.5232-78.7968-73.5232 78.7456a31.9488 31.9488 0 1 1-46.4384-43.8784L742.4 132.096a32.3072 32.3072 0 0 1 23.2448-10.24 30.208 30.208 0 0 1 23.2448 10.24l98.048 104.4992A32.3072 32.3072 0 0 1 885.76 281.6a52.224 52.224 0 0 1-24.5248 9.0112zM762.88 911.36a30.208 30.208 0 0 1-23.2448-10.24l-98.048-104.4992a31.9488 31.9488 0 1 1 46.5408-43.9808l73.5232 78.6944L835.2256 752.64a31.9488 31.9488 0 0 1 46.4384 43.8784L783.616 901.12c-2.56 6.4512-11.6224 10.24-20.48 10.24z" p-id="3912"></path><path fill='currentColor' d="M762.88 859.8528a31.9488 31.9488 0 0 1-32.256-32.256V200.4992a32.256 32.256 0 1 1 64.512 0v627.0976a31.9488 31.9488 0 0 1-32.256 32.256zM510.0544 374.6816H170.7008a32.256 32.256 0 0 1 0-64.512h339.3536a31.9488 31.9488 0 0 1 32.256 32.256 32.768 32.768 0 0 1-32.256 32.256zM510.0544 537.2928H170.7008a32.256 32.256 0 0 1 0-64.512h339.3536a31.9488 31.9488 0 0 1 32.256 32.256 32.768 32.768 0 0 1-32.256 32.256zM508.7744 723.0976H169.4208a32.256 32.256 0 1 1 0-64.512h339.3536a31.9488 31.9488 0 0 1 32.256 32.256 32.768 32.768 0 0 1-32.256 32.256z" p-id="3913"></path></svg>