<svg t="1703302778615" class="icon" viewBox="0 0 1024 1024" version="1.1" xmlns="http://www.w3.org/2000/svg" p-id="1699" width="200" height="200"><path fill='currentColor' d="M513.8432 869.1712a30.72 30.72 0 0 1-21.9648-9.7792l-85.504-87.9616H158.4128a87.552 87.552 0 0 1-87.9104-87.9104V243.8144a87.552 87.552 0 0 1 87.9104-87.9104h715.7248a87.552 87.552 0 0 1 87.9616 87.9616v439.6544a87.552 87.552 0 0 1-87.9616 87.9616h-252.8256l-85.504 87.9616a32.8192 32.8192 0 0 1-21.9648 9.728zM158.4128 218.1632a27.0848 27.0848 0 0 0-26.88 26.88v439.7056a27.0848 27.0848 0 0 0 26.88 26.9312h260.1472a30.72 30.72 0 0 1 21.76 9.728l73.2672 74.496 73.2672-74.496A30.72 30.72 0 0 1 609.28 711.68h266.24a27.0848 27.0848 0 0 0 26.88-26.88V245.0432a27.0848 27.0848 0 0 0-26.88-26.88z" p-id="1700"></path><path fill='currentColor' d="M324.5056 475.904m-52.5312 0a52.5312 52.5312 0 1 0 105.0624 0 52.5312 52.5312 0 1 0-105.0624 0Z" p-id="1701"></path><path fill='currentColor' d="M516.3008 475.904m-52.5312 0a52.5312 52.5312 0 1 0 105.0624 0 52.5312 52.5312 0 1 0-105.0624 0Z" p-id="1702"></path><path fill='currentColor' d="M708.0448 475.904m-52.5312 0a52.5312 52.5312 0 1 0 105.0624 0 52.5312 52.5312 0 1 0-105.0624 0Z" p-id="1703"></path></svg>