<svg t="1703303335040" class="icon" viewBox="0 0 1024 1024" version="1.1" xmlns="http://www.w3.org/2000/svg" p-id="2442" width="200" height="200"><path fill='currentColor' d="M655.0016 844.3392a38.0416 38.0416 0 0 1-38.7072-38.7072V218.5728a38.7072 38.7072 0 0 1 77.4144 0v587.0592a39.68 39.68 0 0 1-38.7072 38.7072z" p-id="2443"></path><path fill='currentColor' d="M834.56 436.6336a37.12 37.12 0 0 1-27.2896-11.6736l-179.2-179.2a38.2976 38.2976 0 0 1 54.1696-54.1696l179.2 179.2a37.4272 37.4272 0 0 1 0 54.1696 39.3216 39.3216 0 0 1-26.88 11.6736zM364.6976 844.3392a38.0416 38.0416 0 0 1-38.7072-38.7072V218.5728a38.7072 38.7072 0 1 1 77.4144 0v587.0592a39.68 39.68 0 0 1-38.7072 38.7072z" p-id="2444"></path><path fill='currentColor' d="M364.6976 844.3392a37.12 37.12 0 0 1-27.0848-11.6224l-179.2-179.2A38.2976 38.2976 0 1 1 212.4288 599.04l179.2 179.2a38.7072 38.7072 0 0 1-27.0848 65.792z" p-id="2445"></path></svg>