<svg t="1703340469416" class="icon" viewBox="0 0 1024 1024" version="1.1" xmlns="http://www.w3.org/2000/svg" p-id="66941" width="200" height="200"><path d="M853.333333 426.666667c-12.8-200.533333-174.933333-354.133333-358.4-337.066667C371.2 98.133333 264.533333 179.2 213.333333 298.666667c-136.533333 21.333333-230.4 162.133333-209.066666 311.466666 17.066667 115.2 93.866667 204.8 196.266666 226.133334 12.8 4.266667 29.866667 4.266667 42.666667 4.266666h584.533333c106.666667 0 192-93.866667 192-213.333333 4.266667-98.133333-68.266667-187.733333-166.4-200.533333z" fill="#D7EEFF" p-id="66942"></path><path d="M503.466667 558.933333l-29.866667-29.866666-59.733333 59.733333V362.666667h-42.666667v221.866666l-59.733333-59.733333-29.866667 29.866667 110.933333 110.933333 110.933334-106.666667zM503.466667 465.066667l29.866666 29.866666 59.733334-59.733333v226.133333h42.666666v-221.866666l59.733334 59.733333 29.866666-29.866667-110.933333-110.933333-110.933333 106.666667z" fill="#006CFF" p-id="66943"></path></svg>