<svg t="1703303556466" class="icon" viewBox="0 0 1024 1024" version="1.1" xmlns="http://www.w3.org/2000/svg" p-id="4499" width="200" height="200"><path fill='currentColor' d="M864.0512 553.6256a34.6624 34.6624 0 0 1-25.2928-10.8544L517.12 221.3888 195.9424 542.72a35.84 35.84 0 0 1-50.5856-50.5856l346.7264-346.5728a34.9184 34.9184 0 0 1 50.5856 0l346.6752 346.6752a34.9184 34.9184 0 0 1 0 50.5856 32.768 32.768 0 0 1-25.2928 10.8032z" p-id="4500"></path><path fill='currentColor' d="M517.12 889.4976a35.4816 35.4816 0 0 1-35.84-36.096V170.8032a36.096 36.096 0 1 1 72.2432 0v682.5984a36.1984 36.1984 0 0 1-36.4032 36.096z" p-id="4501"></path></svg>