<?xml version="1.0" standalone="no"?><!DOCTYPE svg PUBLIC "-//W3C//DTD SVG 1.1//EN" "http://www.w3.org/Graphics/SVG/1.1/DTD/svg11.dtd"><svg class="icon" width="200px" height="200.00px" viewBox="0 0 1024 1024" version="1.1" xmlns="http://www.w3.org/2000/svg"><path d="M661.942857 73.142857H146.285714c-20.114286 0-36.571429 16.457143-36.571428 36.571429v804.571428c0 20.114286 16.457143 36.571429 36.571428 36.571429h731.428572c20.114286 0 36.571429-16.457143 36.571428-36.571429V325.485714L661.942857 73.142857z" fill="#D61E4D" /><path d="M241.371429 415.085714H171.885714v354.742857h73.142857c76.8 0 122.514286-65.828571 122.514286-179.2 0-113.371429-45.714286-175.542857-126.171428-175.542857z m-14.628572 64h10.971429c47.542857 0 71.314286 36.571429 71.314285 113.371429s-23.771429 115.2-71.314285 115.2h-10.971429V479.085714zM594.285714 588.8c-3.657143 29.257143-5.485714 56.685714-9.142857 87.771429 0-5.485714-1.828571-9.142857-1.828571-14.628572-3.657143-23.771429-7.314286-49.371429-10.971429-73.142857l-29.257143-173.714286h-47.542857l-29.257143 173.714286c-3.657143 23.771429-7.314286 53.028571-12.8 85.942857-3.657143-27.428571-5.485714-54.857143-9.142857-85.942857l-18.285714-170.057143v-3.657143h-56.685714l47.542857 354.742857h65.828571l27.428572-175.542857c1.828571-18.285714 5.485714-36.571429 7.314285-56.685714 1.828571 16.457143 3.657143 34.742857 7.314286 56.685714l27.428571 171.885715v3.657142H621.714286l45.714285-354.742857h-53.028571l-20.114286 173.714286zM778.971429 570.514286v64H822.857143v64c-5.485714 7.314286-16.457143 10.971429-27.428572 10.971428-43.885714 0-69.485714-42.057143-69.485714-117.028571 0-71.314286 25.6-115.2 65.828572-115.2 21.942857 0 34.742857 12.8 45.714285 27.428571l3.657143 3.657143 29.257143-51.2-1.828571-1.828571c-20.114286-31.085714-47.542857-45.714286-78.628572-45.714286-71.314286 0-120.685714 76.8-120.685714 184.685714 0 111.542857 47.542857 182.857143 120.685714 182.857143 32.914286 0 64-16.457143 82.285714-43.885714v-162.742857h-93.257142z" fill="#FFFFFF" /><path d="M661.942857 288.914286c0 20.114286 16.457143 36.571429 36.571429 36.571428H914.285714L661.942857 73.142857v215.771429z" fill="#DA577D" /></svg>