<?xml version="1.0" standalone="no"?><!DOCTYPE svg PUBLIC "-//W3C//DTD SVG 1.1//EN" "http://www.w3.org/Graphics/SVG/1.1/DTD/svg11.dtd"><svg class="icon" width="200px" height="200.00px" viewBox="0 0 1024 1024" version="1.1" xmlns="http://www.w3.org/2000/svg"><path d="M661.942857 73.142857H146.285714c-20.114286 0-36.571429 16.457143-36.571428 36.571429v804.571428c0 20.114286 16.457143 36.571429 36.571428 36.571429h731.428572c20.114286 0 36.571429-16.457143 36.571428-36.571429V325.485714L661.942857 73.142857z" fill="#4358A6" /><path d="M287.085714 619.885714h85.942857v-65.828571h-85.942857v-73.142857h102.4v-65.828572h-157.257143v354.742857h160.914286v-65.828571h-106.057143zM612.571429 415.085714h-60.342858l-23.771428 74.971429c-5.485714 16.457143-9.142857 29.257143-14.628572 45.714286-1.828571-5.485714-3.657143-9.142857-3.657142-14.628572-3.657143-10.971429-7.314286-21.942857-10.971429-31.085714l-25.6-74.971429h-62.171429l65.828572 171.885715-69.485714 182.857142h60.342857l27.428571-78.628571c5.485714-14.628571 9.142857-29.257143 14.628572-47.542857 3.657143 9.142857 5.485714 18.285714 9.142857 27.428571l7.314285 20.114286 27.428572 78.628571h62.171428l-69.485714-179.2 65.828572-175.542857zM698.514286 704v-84.114286h85.942857v-65.828571h-85.942857v-73.142857h100.571428v-65.828572h-157.257143v354.742857h160.914286v-65.828571z" fill="#FFFFFF" /><path d="M661.942857 288.914286c0 20.114286 16.457143 36.571429 36.571429 36.571428H914.285714L661.942857 73.142857v215.771429z" fill="#4B67B0" /></svg>