<?xml version="1.0" standalone="no"?><!DOCTYPE svg PUBLIC "-//W3C//DTD SVG 1.1//EN" "http://www.w3.org/Graphics/SVG/1.1/DTD/svg11.dtd"><svg class="icon" width="200px" height="200.00px" viewBox="0 0 1024 1024" version="1.1" xmlns="http://www.w3.org/2000/svg"><path d="M661.942857 82.285714H146.285714c-20.114286 0-36.571429 16.457143-36.571428 36.571429v804.571428c0 20.114286 16.457143 36.571429 36.571428 36.571429h731.428572c20.114286 0 36.571429-16.457143 36.571428-36.571429V334.628571L661.942857 82.285714z" fill="#BCBCBC" /><path d="M661.942857 298.057143c0 20.114286 16.457143 36.571429 36.571429 36.571428H914.285714L661.942857 82.285714v215.771429z" fill="#D8D8D8" /><path d="M521.142857 705.828571l-84.114286 84.114286c-3.657143 3.657143-9.142857 3.657143-12.8 0l-104.228571-104.228571c-1.828571-1.828571-1.828571-5.485714-1.828571-7.314286s0-3.657143 1.828571-7.314286l84.114286-84.114285L365.714286 548.571429l-84.114286 84.114285c-12.8 12.8-18.285714 27.428571-18.285714 45.714286s7.314286 32.914286 18.285714 45.714286l104.228571 104.228571c12.8 12.8 29.257143 18.285714 45.714286 18.285714s32.914286-5.485714 45.714286-18.285714l84.114286-84.114286-40.228572-38.4zM502.857143 488.228571l84.114286-84.114285c3.657143-3.657143 9.142857-3.657143 12.8 0l104.228571 104.228571c1.828571 1.828571 1.828571 5.485714 1.828571 7.314286s0 3.657143-1.828571 7.314286L621.714286 605.257143l38.4 38.4 84.114285-84.114286c12.8-12.8 18.285714-27.428571 18.285715-45.714286s-7.314286-32.914286-18.285715-45.714285L638.171429 365.714286c-25.6-25.6-65.828571-25.6-91.428572 0l-84.114286 84.114285 40.228572 38.4z" fill="#FFFFFF" /><path d="M426.093714 644.205714l146.102857-146.102857 38.784 38.765714-146.102857 146.102858z" fill="#FFFFFF" /></svg>