<?xml version="1.0" standalone="no"?><!DOCTYPE svg PUBLIC "-//W3C//DTD SVG 1.1//EN" "http://www.w3.org/Graphics/SVG/1.1/DTD/svg11.dtd"><svg class="icon" width="200px" height="200.00px" viewBox="0 0 1024 1024" version="1.1" xmlns="http://www.w3.org/2000/svg"><path d="M661.942857 84.114286H146.285714c-20.114286 0-36.571429 16.457143-36.571428 36.571428v804.571429c0 20.114286 16.457143 36.571429 36.571428 36.571428h731.428572c20.114286 0 36.571429-16.457143 36.571428-36.571428V336.457143L661.942857 84.114286z" fill="#2D63AF" /><path d="M405.942857 535.771429c0-89.6-53.028571-109.714286-95.085714-109.714286h-87.771429v354.742857h56.685715v-131.657143h27.428571l49.371429 131.657143h62.171428l-58.514286-144.457143c21.942857-12.8 45.714286-40.228571 45.714286-100.571428z m-128-47.542858h27.428572c31.085714 0 45.714286 12.8 45.714285 45.714286 0 34.742857-14.628571 53.028571-45.714285 53.028572h-27.428572v-98.742858zM539.428571 597.942857c-3.657143 18.285714-7.314286 34.742857-9.142857 53.028572-1.828571 14.628571-5.485714 29.257143-9.142857 45.714285-1.828571-14.628571-5.485714-27.428571-7.314286-40.228571-3.657143-18.285714-7.314286-36.571429-10.971428-56.685714l-32.914286-170.057143v-3.657143h-58.514286l76.8 354.742857h64l76.8-354.742857h-56.685714l-32.914286 171.885714zM629.028571 426.057143v65.828571h67.657143v288.914286h56.685715V491.885714H822.857143v-65.828571z" fill="#FFFFFF" /><path d="M661.942857 279.771429c0 20.114286 16.457143 36.571429 36.571429 36.571428H914.285714L661.942857 62.171429v217.6z" fill="#658ECA" /></svg>