<?xml version="1.0" standalone="no"?><!DOCTYPE svg PUBLIC "-//W3C//DTD SVG 1.1//EN" "http://www.w3.org/Graphics/SVG/1.1/DTD/svg11.dtd"><svg class="icon" width="200px" height="200.00px" viewBox="0 0 1024 1024" version="1.1" xmlns="http://www.w3.org/2000/svg"><path d="M661.942857 73.142857H146.285714c-20.114286 0-36.571429 16.457143-36.571428 36.571429v804.571428c0 20.114286 16.457143 36.571429 36.571428 36.571429h731.428572c20.114286 0 36.571429-16.457143 36.571428-36.571429V325.485714L661.942857 73.142857z" fill="#065F99" /><path d="M330.971429 570.514286l-34.742858-20.114286c-20.114286-10.971429-32.914286-20.114286-32.914285-42.057143 0-20.114286 10.971429-32.914286 31.085714-32.914286 18.285714 0 32.914286 9.142857 49.371429 27.428572l3.657142 3.657143 29.257143-49.371429-1.828571-1.828571c-20.114286-29.257143-49.371429-47.542857-80.457143-47.542857-51.2 0-87.771429 43.885714-87.771429 104.228571 0 58.514286 32.914286 85.942857 51.2 96.914286l32.914286 20.114285 3.657143 1.828572c20.114286 12.8 32.914286 20.114286 32.914286 42.057143 0 23.771429-12.8 36.571429-34.742857 36.571428-20.114286 0-42.057143-14.628571-58.514286-36.571428l-3.657143-3.657143-32.914286 54.857143 1.828572 1.828571c23.771429 32.914286 58.514286 53.028571 91.428571 53.028572 54.857143 0 93.257143-43.885714 93.257143-107.885715-1.828571-49.371429-18.285714-80.457143-53.028571-100.571428zM612.571429 415.085714h-62.171429l-76.8 142.628572v-142.628572h-54.857143v354.742857h54.857143v-100.571428l29.257143-49.371429 60.342857 149.942857h62.171429l-89.6-213.942857zM729.6 415.085714h-84.114286v354.742857h56.685715v-124.342857H731.428571c62.171429 0 98.742857-43.885714 98.742858-118.857143-1.828571-71.314286-36.571429-111.542857-100.571429-111.542857z m-29.257143 62.171429h23.771429c34.742857 0 47.542857 14.628571 47.542857 51.2 0 38.4-14.628571 56.685714-45.714286 56.685714h-25.6v-107.885714z" fill="#FFFFFF" /><path d="M661.942857 288.914286c0 20.114286 16.457143 36.571429 36.571429 36.571428H914.285714L661.942857 73.142857v215.771429z" fill="#1C77AC" /></svg>